# Blender v2.83.0 OBJ File: ''
# www.blender.org
mtllib hdd.mtl
o Hard_Disk_Plane
v -0.501472 0.246810 -0.738653
v -0.501472 0.000000 -0.738653
v -0.515800 0.000000 -0.687119
v -0.515800 0.246810 -0.687119
v -0.515800 0.000000 -0.480983
v -0.515800 0.246810 -0.480983
v -0.515800 0.000000 0.000000
v -0.515800 0.246810 0.000000
v -0.515800 0.246810 0.480984
v -0.515800 -0.000000 0.480983
v -0.515800 -0.000000 0.687119
v -0.515800 0.246810 0.687119
v -0.501472 -0.000000 0.738653
v -0.501472 0.246810 0.738653
v 0.501472 0.246810 -0.738653
v 0.501472 0.000000 -0.738653
v 0.458488 0.000000 -0.755831
v 0.458488 0.246810 -0.755831
v 0.315211 0.000000 -0.755831
v 0.315211 0.246810 -0.755831
v -0.315212 0.246810 -0.755831
v -0.315212 0.000000 -0.755831
v -0.458490 0.000000 -0.755831
v -0.458490 0.246810 -0.755831
v -0.000000 0.000000 -0.755831
v -0.000000 0.246810 -0.755831
v -0.501472 0.000000 -0.738653
v -0.501472 0.246810 -0.738653
v 0.501849 0.246810 -0.738653
v 0.515420 0.246810 -0.687119
v 0.515420 0.000000 -0.687119
v 0.501849 0.000000 -0.738653
v 0.515420 0.246810 -0.480983
v 0.515420 0.000000 -0.480983
v 0.515420 0.246810 0.000000
v 0.515420 0.000000 0.000000
v 0.515420 0.246810 0.480984
v 0.515420 0.246810 0.687119
v 0.515420 -0.000000 0.687119
v 0.515420 -0.000000 0.480983
v 0.501849 0.246810 0.738653
v 0.501849 -0.000000 0.738653
v 0.458488 0.246810 0.755831
v 0.458488 -0.000000 0.755831
v 0.501472 -0.000000 0.738653
v 0.501472 0.246810 0.738653
v -0.000000 0.246810 0.755831
v -0.000000 -0.000000 0.755831
v 0.315211 -0.000000 0.755831
v 0.315211 0.246810 0.755831
v -0.501472 0.246810 0.738653
v -0.501472 -0.000000 0.738653
v -0.458490 -0.000000 0.755831
v -0.458490 0.246810 0.755831
v -0.315212 -0.000000 0.755831
v -0.315212 0.246810 0.755831
v -0.511228 0.089832 0.715480
v -0.511228 -0.002212 0.715480
v -0.511228 -0.002212 0.760117
v -0.511228 0.089832 0.760117
v 0.273969 0.089832 0.760117
v 0.273969 -0.002212 0.760117
v 0.514400 -0.002212 0.760117
v 0.514400 0.089832 0.760117
v 0.514400 -0.002212 0.705397
v 0.514400 0.089832 0.705397
v 0.273969 0.089832 0.705397
v 0.260941 -0.002212 0.760117
v 0.260941 -0.002212 0.715480
v 0.273969 -0.002212 0.705397
v 0.260941 0.089832 0.760117
v 0.260941 0.089832 0.715480
v 0.458488 0.246810 -0.687119
v 0.315211 0.246810 -0.687119
v 0.315211 0.246810 -0.480983
v 0.458488 0.246810 -0.480983
v 0.515800 0.246810 -0.480983
v 0.515800 0.246810 -0.687119
v 0.501472 0.246810 -0.738653
v 0.458488 0.246810 -0.755831
v 0.315211 0.246810 -0.755831
v -0.458490 0.246810 -0.687119
v -0.515800 0.246810 -0.687119
v -0.515800 0.246810 -0.480983
v -0.458490 0.246810 -0.480983
v -0.315212 0.246810 -0.480983
v -0.315212 0.246810 -0.687119
v -0.315212 0.246810 -0.755831
v -0.458490 0.246810 -0.755831
v -0.501472 0.246810 -0.738653
v -0.000000 0.246810 -0.687119
v -0.000000 0.246810 -0.480983
v -0.000000 0.246810 -0.755831
v -0.000000 0.246810 0.000000
v -0.000000 0.246810 0.480984
v 0.315211 0.246810 0.480984
v 0.315211 0.246810 0.000000
v -0.315212 0.246810 0.000000
v -0.315212 0.246810 0.480984
v -0.000000 0.246810 0.687119
v -0.315212 0.246810 0.687119
v -0.315212 0.246810 0.755831
v -0.000000 0.246810 0.755831
v 0.315211 0.246810 0.755831
v 0.315211 0.246810 0.687119
v -0.458490 0.246810 0.687119
v -0.515800 0.246810 0.687119
v -0.501472 0.246810 0.738653
v -0.458490 0.246810 0.755831
v -0.458490 0.246810 0.480984
v -0.515800 0.246810 0.480984
v -0.458490 0.246810 0.000000
v -0.515800 0.246810 0.000000
v 0.458488 0.246810 0.687119
v 0.458488 0.246810 0.755831
v 0.501472 0.246810 0.738653
v 0.515800 0.246810 0.687119
v 0.515800 0.246810 0.480984
v 0.458488 0.246810 0.480984
v 0.458488 0.246810 0.000000
v 0.515800 0.246810 0.000000
v 0.458488 0.000000 -0.687119
v 0.458488 0.000000 -0.480983
v 0.315211 0.000000 -0.480983
v 0.315211 0.000000 -0.687119
v 0.515800 0.000000 -0.687119
v 0.515800 0.000000 -0.480983
v 0.458488 0.000000 -0.755831
v 0.501472 0.000000 -0.738653
v 0.315211 0.000000 -0.755831
v -0.458490 0.000000 -0.687119
v -0.458490 0.000000 -0.480983
v -0.515800 0.000000 -0.480983
v -0.515800 0.000000 -0.687119
v -0.315212 0.000000 -0.687119
v -0.315212 0.000000 -0.480983
v -0.458490 0.000000 -0.755831
v -0.315212 0.000000 -0.755831
v -0.501472 0.000000 -0.738653
v -0.000000 0.000000 -0.687119
v -0.000000 0.000000 -0.480983
v -0.000000 0.000000 -0.755831
v -0.000000 0.000000 0.000000
v 0.315211 0.000000 0.000000
v 0.315211 -0.000000 0.480983
v -0.000000 -0.000000 0.480983
v -0.315212 0.000000 0.000000
v -0.315212 -0.000000 0.480983
v -0.000000 -0.000000 0.687119
v -0.000000 -0.000000 0.755831
v -0.315212 -0.000000 0.755831
v -0.315212 -0.000000 0.687119
v 0.315211 -0.000000 0.687119
v 0.315211 -0.000000 0.755831
v -0.458490 -0.000000 0.687119
v -0.458490 -0.000000 0.755831
v -0.501472 -0.000000 0.738653
v -0.515800 -0.000000 0.687119
v -0.458490 -0.000000 0.480983
v -0.515800 -0.000000 0.480983
v -0.458490 0.000000 0.000000
v -0.515800 0.000000 0.000000
v 0.458488 -0.000000 0.687119
v 0.458488 -0.000000 0.755831
v 0.515800 -0.000000 0.687119
v 0.501472 -0.000000 0.738653
v 0.458488 -0.000000 0.480983
v 0.515800 -0.000000 0.480983
v 0.458488 0.000000 0.000000
v 0.515800 0.000000 0.000000
vt 0.691467 0.055746
vt 0.762792 0.055799
vt 0.762787 0.078731
vt 0.691461 0.078678
vt 0.762766 0.207358
vt 0.691440 0.207305
vt 0.762717 0.507488
vt 0.691391 0.507435
vt 0.691342 0.807564
vt 0.762668 0.807617
vt 0.762647 0.936244
vt 0.691322 0.936191
vt 0.762642 0.954999
vt 0.691316 0.954946
vt 0.808544 0.045504
vt 0.878455 0.045504
vt 0.878455 0.076716
vt 0.808544 0.076716
vt 0.876955 0.166017
vt 0.807044 0.166017
vt 0.807044 0.591107
vt 0.876955 0.591107
vt 0.876955 0.687719
vt 0.807044 0.687719
vt 0.876955 0.378562
vt 0.807044 0.378562
vt 0.877585 0.705114
vt 0.807674 0.705114
vt 0.690837 0.055828
vt 0.691461 0.089205
vt 0.764037 0.089258
vt 0.763412 0.055882
vt 0.691440 0.207305
vt 0.764016 0.207358
vt 0.691391 0.507435
vt 0.763967 0.507488
vt 0.691342 0.807564
vt 0.691322 0.936191
vt 0.763897 0.936244
vt 0.763918 0.807617
vt 0.691316 0.969567
vt 0.763892 0.969621
vt 0.906854 0.679101
vt 0.979259 0.679159
vt 0.979254 0.710472
vt 0.906850 0.710414
vt 0.906901 0.368948
vt 0.979305 0.369006
vt 0.979273 0.582236
vt 0.906869 0.582179
vt 0.906952 0.042103
vt 0.979356 0.042161
vt 0.979352 0.073474
vt 0.906947 0.073416
vt 0.979337 0.155775
vt 0.906933 0.155718
vt 0.956977 0.943684
vt 0.956977 0.957222
vt 0.944802 0.957222
vt 0.944802 0.943684
vt 0.977756 0.194785
vt 0.952918 0.194785
vt 0.952918 0.039539
vt 0.977756 0.039539
vt 0.959741 0.957222
vt 0.959741 0.943684
vt 0.974666 0.943684
vt 0.974666 0.957222
vt 0.944802 0.828197
vt 0.944802 0.792834
vt 0.959727 0.792834
vt 0.959727 0.828197
vt 0.959741 0.906405
vt 0.959741 0.792834
vt 0.971916 0.792834
vt 0.971916 0.906405
vt 0.959741 0.908321
vt 0.974666 0.908321
vt 0.944802 0.830113
vt 0.956977 0.830113
vt 0.977756 0.701783
vt 0.952919 0.701783
vt 0.952918 0.203198
vt 0.977756 0.203198
vt 0.029859 0.072321
vt 0.072260 0.072321
vt 0.072260 0.201860
vt 0.029859 0.201860
vt 0.012899 0.201860
vt 0.012899 0.072321
vt 0.017139 0.039937
vt 0.029859 0.029142
vt 0.072260 0.029142
vt 0.301224 0.072321
vt 0.318184 0.072321
vt 0.318184 0.201860
vt 0.301224 0.201860
vt 0.258823 0.201860
vt 0.258823 0.072321
vt 0.258823 0.029142
vt 0.301224 0.029142
vt 0.313944 0.039936
vt 0.165541 0.072321
vt 0.165541 0.201860
vt 0.165541 0.029142
vt 0.165541 0.504116
vt 0.165541 0.806373
vt 0.072260 0.806373
vt 0.072260 0.504116
vt 0.258823 0.504116
vt 0.258823 0.806373
vt 0.165541 0.935911
vt 0.258823 0.935911
vt 0.258823 0.979091
vt 0.165541 0.979091
vt 0.072260 0.979091
vt 0.072260 0.935912
vt 0.301224 0.935911
vt 0.318184 0.935911
vt 0.313944 0.968296
vt 0.301224 0.979091
vt 0.301224 0.806373
vt 0.318184 0.806373
vt 0.301224 0.504116
vt 0.318184 0.504116
vt 0.029859 0.935912
vt 0.029859 0.979091
vt 0.017139 0.968296
vt 0.012899 0.935912
vt 0.012899 0.806373
vt 0.029859 0.806373
vt 0.029859 0.504116
vt 0.012899 0.504116
vt 0.639081 0.066594
vt 0.639081 0.193770
vt 0.595818 0.193770
vt 0.595818 0.066594
vt 0.656386 0.066594
vt 0.656386 0.193770
vt 0.639081 0.024202
vt 0.652060 0.034800
vt 0.595818 0.024202
vt 0.362200 0.066594
vt 0.362200 0.193770
vt 0.344895 0.193770
vt 0.344895 0.066594
vt 0.405463 0.066594
vt 0.405463 0.193770
vt 0.362200 0.024202
vt 0.405463 0.024202
vt 0.349221 0.034800
vt 0.500641 0.066594
vt 0.500641 0.193770
vt 0.500641 0.024202
vt 0.500640 0.490515
vt 0.595818 0.490515
vt 0.595818 0.787259
vt 0.500640 0.787259
vt 0.405463 0.490515
vt 0.405463 0.787259
vt 0.500640 0.914435
vt 0.500641 0.956827
vt 0.405463 0.956827
vt 0.405463 0.914435
vt 0.595818 0.914435
vt 0.595818 0.956827
vt 0.362200 0.914435
vt 0.362200 0.956827
vt 0.349221 0.946229
vt 0.344895 0.914435
vt 0.362200 0.787259
vt 0.344895 0.787259
vt 0.362200 0.490515
vt 0.344895 0.490515
vt 0.639081 0.914435
vt 0.639081 0.956827
vt 0.656386 0.914435
vt 0.652060 0.946229
vt 0.639081 0.787259
vt 0.656386 0.787259
vt 0.639081 0.490515
vt 0.656386 0.490515
vn -0.9635 0.0000 -0.2679
vn -0.9908 0.0000 -0.1352
vn -1.0000 0.0000 0.0000
vn -0.9908 -0.0000 0.1352
vn -0.9635 -0.0000 0.2679
vn 0.3711 0.0000 -0.9286
vn 0.1890 0.0000 -0.9820
vn 0.0000 0.0000 -1.0000
vn -0.1890 0.0000 -0.9820
vn -0.3711 0.0000 -0.9286
vn 0.9670 0.0000 -0.2547
vn 0.9917 0.0000 -0.1284
vn 1.0000 0.0000 0.0000
vn 0.9917 0.0000 0.1284
vn 0.9670 0.0000 0.2547
vn 0.1890 -0.0000 0.9820
vn 0.3711 -0.0000 0.9286
vn 0.0000 -0.0000 1.0000
vn -0.3711 -0.0000 0.9286
vn -0.1890 -0.0000 0.9820
vn -0.0000 1.0000 0.0000
vn -0.0000 -1.0000 -0.0000
usemtl HardDisk
s 1
f 1/1/1 2/2/1 3/3/2 4/4/2
f 4/4/2 3/3/2 5/5/3 6/6/3
f 6/6/3 5/5/3 7/7/3 8/8/3
f 9/9/3 10/10/3 11/11/4 12/12/4
f 8/8/3 7/7/3 10/10/3 9/9/3
f 12/12/4 11/11/4 13/13/5 14/14/5
f 15/15/6 16/16/6 17/17/7 18/18/7
f 18/18/7 17/17/7 19/19/8 20/20/8
f 21/21/8 22/22/8 23/23/9 24/24/9
f 20/20/8 19/19/8 25/25/8 26/26/8
f 24/24/9 23/23/9 27/27/10 28/28/10
f 26/26/8 25/25/8 22/22/8 21/21/8
f 29/29/11 30/30/12 31/31/12 32/32/11
f 30/30/12 33/33/13 34/34/13 31/31/12
f 33/33/13 35/35/13 36/36/13 34/34/13
f 37/37/13 38/38/14 39/39/14 40/40/13
f 35/35/13 37/37/13 40/40/13 36/36/13
f 38/38/14 41/41/15 42/42/15 39/39/14
f 43/43/16 44/44/16 45/45/17 46/46/17
f 47/47/18 48/48/18 49/49/18 50/50/18
f 51/51/19 52/52/19 53/53/20 54/54/20
f 54/54/20 53/53/20 55/55/18 56/56/18
f 50/50/18 49/49/18 44/44/16 43/43/16
f 56/56/18 55/55/18 48/48/18 47/47/18
f 57/57/3 58/58/3 59/59/3 60/60/3
f 61/61/18 62/62/18 63/63/18 64/64/18
f 64/65/13 63/66/13 65/67/13 66/68/13
f 61/69/21 64/70/21 66/71/21 67/72/21
f 68/73/22 59/74/22 58/75/22 69/76/22
f 62/77/22 68/73/22 69/76/22 70/78/22
f 60/60/21 71/79/21 72/80/21 57/57/21
f 60/81/18 59/82/18 68/83/18 71/84/18
f 63/66/22 62/77/22 70/78/22 65/67/22
f 71/79/21 61/69/21 67/72/21 72/80/21
f 71/84/18 68/83/18 62/62/18 61/61/18
f 73/85/21 74/86/21 75/87/21 76/88/21
f 73/85/21 76/88/21 77/89/21 78/90/21
f 73/85/21 78/90/21 79/91/21 80/92/21
f 73/85/21 80/92/21 81/93/21 74/86/21
f 82/94/21 83/95/21 84/96/21 85/97/21
f 82/94/21 85/97/21 86/98/21 87/99/21
f 82/94/21 87/99/21 88/100/21 89/101/21
f 82/94/21 89/101/21 90/102/21 83/95/21
f 91/103/21 87/99/21 86/98/21 92/104/21
f 91/103/21 92/104/21 75/87/21 74/86/21
f 91/103/21 74/86/21 81/93/21 93/105/21
f 91/103/21 93/105/21 88/100/21 87/99/21
f 94/106/21 95/107/21 96/108/21 97/109/21
f 94/106/21 97/109/21 75/87/21 92/104/21
f 94/106/21 92/104/21 86/98/21 98/110/21
f 94/106/21 98/110/21 99/111/21 95/107/21
f 100/112/21 101/113/21 102/114/21 103/115/21
f 100/112/21 103/115/21 104/116/21 105/117/21
f 100/112/21 105/117/21 96/108/21 95/107/21
f 100/112/21 95/107/21 99/111/21 101/113/21
f 106/118/21 107/119/21 108/120/21 109/121/21
f 106/118/21 109/121/21 102/114/21 101/113/21
f 106/118/21 101/113/21 99/111/21 110/122/21
f 106/118/21 110/122/21 111/123/21 107/119/21
f 112/124/21 113/125/21 111/123/21 110/122/21
f 112/124/21 110/122/21 99/111/21 98/110/21
f 112/124/21 98/110/21 86/98/21 85/97/21
f 112/124/21 85/97/21 84/96/21 113/125/21
f 114/126/21 105/117/21 104/116/21 115/127/21
f 114/126/21 115/127/21 116/128/21 117/129/21
f 114/126/21 117/129/21 118/130/21 119/131/21
f 114/126/21 119/131/21 96/108/21 105/117/21
f 120/132/21 97/109/21 96/108/21 119/131/21
f 120/132/21 119/131/21 118/130/21 121/133/21
f 120/132/21 121/133/21 77/89/21 76/88/21
f 120/132/21 76/88/21 75/87/21 97/109/21
f 122/134/22 123/135/22 124/136/22 125/137/22
f 122/134/22 126/138/22 127/139/22 123/135/22
f 122/134/22 128/140/22 129/141/22 126/138/22
f 122/134/22 125/137/22 130/142/22 128/140/22
f 131/143/22 132/144/22 133/145/22 134/146/22
f 131/143/22 135/147/22 136/148/22 132/144/22
f 131/143/22 137/149/22 138/150/22 135/147/22
f 131/143/22 134/146/22 139/151/22 137/149/22
f 140/152/22 141/153/22 136/148/22 135/147/22
f 140/152/22 125/137/22 124/136/22 141/153/22
f 140/152/22 142/154/22 130/142/22 125/137/22
f 140/152/22 135/147/22 138/150/22 142/154/22
f 143/155/22 144/156/22 145/157/22 146/158/22
f 143/155/22 141/153/22 124/136/22 144/156/22
f 143/155/22 147/159/22 136/148/22 141/153/22
f 143/155/22 146/158/22 148/160/22 147/159/22
f 149/161/22 150/162/22 151/163/22 152/164/22
f 149/161/22 153/165/22 154/166/22 150/162/22
f 149/161/22 146/158/22 145/157/22 153/165/22
f 149/161/22 152/164/22 148/160/22 146/158/22
f 155/167/22 156/168/22 157/169/22 158/170/22
f 155/167/22 152/164/22 151/163/22 156/168/22
f 155/167/22 159/171/22 148/160/22 152/164/22
f 155/167/22 158/170/22 160/172/22 159/171/22
f 161/173/22 159/171/22 160/172/22 162/174/22
f 161/173/22 147/159/22 148/160/22 159/171/22
f 161/173/22 132/144/22 136/148/22 147/159/22
f 161/173/22 162/174/22 133/145/22 132/144/22
f 163/175/22 164/176/22 154/166/22 153/165/22
f 163/175/22 165/177/22 166/178/22 164/176/22
f 163/175/22 167/179/22 168/180/22 165/177/22
f 163/175/22 153/165/22 145/157/22 167/179/22
f 169/181/22 167/179/22 145/157/22 144/156/22
f 169/181/22 170/182/22 168/180/22 167/179/22
f 169/181/22 123/135/22 127/139/22 170/182/22
f 169/181/22 144/156/22 124/136/22 123/135/22
